<mxfile type="github" version="12.9.11" etag="uxbKZ0PkvGaR02VB5cJD" agent="5.0 (Windows NT 10.0; Win64; x64) AppleWebKit/537.36 (KHTML, like Gecko) Chrome/70.0.3538.102 Safari/537.36 Edge/18.18362" modified="2020-04-14T16:35:25.660Z" host="app.diagrams.net">
  <diagram id="C5RBs43oDa-KdzZeNtuy" name="Page-1">
    <mxGraphModel grid="1" dx="1538" dy="1565" gridSize="10" guides="1" tooltips="1" connect="1" arrows="1" fold="1" page="1" pageScale="1" pageWidth="827" pageHeight="1169" math="0" shadow="0">
      <root>
        <mxCell id="WIyWlLk6GJQsqaUBKTNV-0" />
        <mxCell id="WIyWlLk6GJQsqaUBKTNV-1" parent="WIyWlLk6GJQsqaUBKTNV-0" />
        <mxCell id="zkfFHV4jXpPFQw0GAbJ--51" value="Partner" parent="WIyWlLk6GJQsqaUBKTNV-1" style="swimlane;fontStyle=1;childLayout=stackLayout;horizontal=1;startSize=26;horizontalStack=0;resizeParent=1;resizeLast=0;collapsible=1;marginBottom=0;rounded=0;shadow=0;strokeWidth=1;fontSize=14;fillColor=#dae8fc;strokeColor=#6c8ebf;" vertex="1">
          <mxGeometry as="geometry" x="30" y="170" width="160" height="290">
            <mxRectangle as="alternateBounds" x="20" y="80" width="160" height="26" />
          </mxGeometry>
        </mxCell>
        <mxCell id="zkfFHV4jXpPFQw0GAbJ--52" value="PartnerId" parent="zkfFHV4jXpPFQw0GAbJ--51" style="shape=partialRectangle;top=0;left=0;right=0;bottom=1;align=left;verticalAlign=top;fillColor=none;spacingLeft=40;spacingRight=4;overflow=hidden;rotatable=0;points=[[0,0.5],[1,0.5]];portConstraint=eastwest;dropTarget=0;rounded=0;shadow=0;strokeWidth=1;fontStyle=4" vertex="1">
          <mxGeometry as="geometry" y="26" width="160" height="26" />
        </mxCell>
        <mxCell id="zkfFHV4jXpPFQw0GAbJ--53" value="PK" parent="zkfFHV4jXpPFQw0GAbJ--52" style="shape=partialRectangle;top=0;left=0;bottom=0;fillColor=none;align=left;verticalAlign=top;spacingLeft=4;spacingRight=4;overflow=hidden;rotatable=0;points=[];portConstraint=eastwest;part=1;" vertex="1" connectable="0">
          <mxGeometry as="geometry" width="36" height="26" />
        </mxCell>
        <mxCell id="zkfFHV4jXpPFQw0GAbJ--54" value="IdentiyUserId&#xa;FirstName&#xa;LastName&#xa;HomeLocationId&#xa;ViewerPhone&#xa;Address&#xa;City&#xa;State&#xa;Zip&#xa;Long&#xa;Lat&#xa;RatingHelpfulness&#xa;DonateService&#xa;RequestService&#xa;Spcialization" parent="zkfFHV4jXpPFQw0GAbJ--51" style="shape=partialRectangle;top=0;left=0;right=0;bottom=0;align=left;verticalAlign=top;fillColor=none;spacingLeft=40;spacingRight=4;overflow=hidden;rotatable=0;points=[[0,0.5],[1,0.5]];portConstraint=eastwest;dropTarget=0;rounded=0;shadow=0;strokeWidth=1;" vertex="1">
          <mxGeometry as="geometry" y="52" width="160" height="238" />
        </mxCell>
        <mxCell id="zkfFHV4jXpPFQw0GAbJ--55" value="FK&#xa;" parent="zkfFHV4jXpPFQw0GAbJ--54" style="shape=partialRectangle;top=0;left=0;bottom=0;fillColor=none;align=left;verticalAlign=top;spacingLeft=4;spacingRight=4;overflow=hidden;rotatable=0;points=[];portConstraint=eastwest;part=1;" vertex="1" connectable="0">
          <mxGeometry as="geometry" width="36" height="238" />
        </mxCell>
        <mxCell id="w6MAxaTwaF9I9nZjJXPJ-12" value="DonateService" parent="WIyWlLk6GJQsqaUBKTNV-1" style="swimlane;fontStyle=1;childLayout=stackLayout;horizontal=1;startSize=26;horizontalStack=0;resizeParent=1;resizeParentMax=0;resizeLast=0;collapsible=1;marginBottom=0;align=center;fontSize=14;fillColor=#dae8fc;strokeColor=#6c8ebf;" vertex="1">
          <mxGeometry as="geometry" x="270" y="200" width="160" height="200" />
        </mxCell>
        <mxCell id="w6MAxaTwaF9I9nZjJXPJ-13" value="DonateServiceId" parent="w6MAxaTwaF9I9nZjJXPJ-12" style="shape=partialRectangle;top=0;left=0;right=0;bottom=1;align=left;verticalAlign=middle;fillColor=none;spacingLeft=34;spacingRight=4;overflow=hidden;rotatable=0;points=[[0,0.5],[1,0.5]];portConstraint=eastwest;dropTarget=0;fontStyle=4;fontSize=12;" vertex="1">
          <mxGeometry as="geometry" y="26" width="160" height="30" />
        </mxCell>
        <mxCell id="w6MAxaTwaF9I9nZjJXPJ-14" value="PK" parent="w6MAxaTwaF9I9nZjJXPJ-13" style="shape=partialRectangle;top=0;left=0;bottom=0;fillColor=none;align=left;verticalAlign=middle;spacingLeft=4;spacingRight=4;overflow=hidden;rotatable=0;points=[];portConstraint=eastwest;part=1;fontSize=12;" vertex="1" connectable="0">
          <mxGeometry as="geometry" width="30" height="30" />
        </mxCell>
        <mxCell id="w6MAxaTwaF9I9nZjJXPJ-15" value="AcceptOffer" parent="w6MAxaTwaF9I9nZjJXPJ-12" style="shape=partialRectangle;top=0;left=0;right=0;bottom=0;align=left;verticalAlign=top;fillColor=none;spacingLeft=34;spacingRight=4;overflow=hidden;rotatable=0;points=[[0,0.5],[1,0.5]];portConstraint=eastwest;dropTarget=0;fontSize=12;" vertex="1">
          <mxGeometry as="geometry" y="56" width="160" height="26" />
        </mxCell>
        <mxCell id="w6MAxaTwaF9I9nZjJXPJ-16" value="" parent="w6MAxaTwaF9I9nZjJXPJ-15" style="shape=partialRectangle;top=0;left=0;bottom=0;fillColor=none;align=left;verticalAlign=top;spacingLeft=4;spacingRight=4;overflow=hidden;rotatable=0;points=[];portConstraint=eastwest;part=1;fontSize=12;" vertex="1" connectable="0">
          <mxGeometry as="geometry" width="30" height="26" />
        </mxCell>
        <mxCell id="w6MAxaTwaF9I9nZjJXPJ-17" value="PartnerId&#xa;RequestServiceId&#xa;OfferRequest&#xa;Date&#xa;RatingHelpfullnessId&#xa;RadiusId&#xa;TravelRadiusId" parent="w6MAxaTwaF9I9nZjJXPJ-12" style="shape=partialRectangle;top=0;left=0;right=0;bottom=0;align=left;verticalAlign=top;fillColor=none;spacingLeft=34;spacingRight=4;overflow=hidden;rotatable=0;points=[[0,0.5],[1,0.5]];portConstraint=eastwest;dropTarget=0;fontSize=12;" vertex="1">
          <mxGeometry as="geometry" y="82" width="160" height="118" />
        </mxCell>
        <mxCell id="w6MAxaTwaF9I9nZjJXPJ-18" value="FK&#xa;FK&#xa;&#xa;&#xa;FK&#xa;&#xa;&#xa;&#xa;&#xa;&#xa;&#xa;&#xa;&#xa;&#xa;" parent="w6MAxaTwaF9I9nZjJXPJ-17" style="shape=partialRectangle;top=0;left=0;bottom=0;fillColor=none;align=left;verticalAlign=top;spacingLeft=4;spacingRight=4;overflow=hidden;rotatable=0;points=[];portConstraint=eastwest;part=1;fontSize=12;" vertex="1" connectable="0">
          <mxGeometry as="geometry" width="30" height="118" />
        </mxCell>
        <mxCell id="w6MAxaTwaF9I9nZjJXPJ-37" value="" parent="WIyWlLk6GJQsqaUBKTNV-1" style="edgeStyle=entityRelationEdgeStyle;fontSize=12;html=1;endArrow=ERmandOne;startArrow=ERone;startFill=0;" target="w6MAxaTwaF9I9nZjJXPJ-27" edge="1">
          <mxGeometry as="geometry" width="100" height="100" relative="1">
            <mxPoint as="sourcePoint" x="430" y="300" />
            <mxPoint as="targetPoint" x="540" y="280" />
          </mxGeometry>
        </mxCell>
        <mxCell id="w6MAxaTwaF9I9nZjJXPJ-26" value="RequestService" parent="WIyWlLk6GJQsqaUBKTNV-1" style="swimlane;fontStyle=1;childLayout=stackLayout;horizontal=1;startSize=26;horizontalStack=0;resizeParent=1;resizeParentMax=0;resizeLast=0;collapsible=1;marginBottom=0;align=center;fontSize=14;fillColor=#dae8fc;strokeColor=#6c8ebf;" vertex="1">
          <mxGeometry as="geometry" x="270" width="180" height="190" />
        </mxCell>
        <mxCell id="w6MAxaTwaF9I9nZjJXPJ-27" value="RequestServiceId" parent="w6MAxaTwaF9I9nZjJXPJ-26" style="shape=partialRectangle;top=0;left=0;right=0;bottom=1;align=left;verticalAlign=middle;fillColor=none;spacingLeft=34;spacingRight=4;overflow=hidden;rotatable=0;points=[[0,0.5],[1,0.5]];portConstraint=eastwest;dropTarget=0;fontStyle=5;fontSize=12;" vertex="1">
          <mxGeometry as="geometry" y="26" width="180" height="30" />
        </mxCell>
        <mxCell id="w6MAxaTwaF9I9nZjJXPJ-28" value="PK" parent="w6MAxaTwaF9I9nZjJXPJ-27" style="shape=partialRectangle;top=0;left=0;bottom=0;fillColor=none;align=left;verticalAlign=middle;spacingLeft=4;spacingRight=4;overflow=hidden;rotatable=0;points=[];portConstraint=eastwest;part=1;fontSize=12;" vertex="1" connectable="0">
          <mxGeometry as="geometry" width="30" height="30" />
        </mxCell>
        <mxCell id="w6MAxaTwaF9I9nZjJXPJ-29" value="PartnerId&#xa;RequestDate&#xa;RequestItem&#xa;GroceryList&#xa;AcceptRequest&#xa;RequestDayOfWeek&#xa;" parent="w6MAxaTwaF9I9nZjJXPJ-26" style="shape=partialRectangle;top=0;left=0;right=0;bottom=0;align=left;verticalAlign=top;fillColor=none;spacingLeft=34;spacingRight=4;overflow=hidden;rotatable=0;points=[[0,0.5],[1,0.5]];portConstraint=eastwest;dropTarget=0;fontSize=12;" vertex="1">
          <mxGeometry as="geometry" y="56" width="180" height="134" />
        </mxCell>
        <mxCell id="w6MAxaTwaF9I9nZjJXPJ-30" value="FK&#xa;&#xa;&#xa;&#xa;" parent="w6MAxaTwaF9I9nZjJXPJ-29" style="shape=partialRectangle;top=0;left=0;bottom=0;fillColor=none;align=left;verticalAlign=top;spacingLeft=4;spacingRight=4;overflow=hidden;rotatable=0;points=[];portConstraint=eastwest;part=1;fontSize=12;" vertex="1" connectable="0">
          <mxGeometry as="geometry" width="33.75" height="134" />
        </mxCell>
        <mxCell id="4Npi-XYbnUJPOElRgU_o-9" value="" parent="WIyWlLk6GJQsqaUBKTNV-1" style="edgeStyle=orthogonalEdgeStyle;fontSize=12;html=1;endArrow=ERzeroToOne;endFill=1;entryX=-0.019;entryY=0.06;entryDx=0;entryDy=0;entryPerimeter=0;startArrow=ERone;startFill=0;" target="zkfFHV4jXpPFQw0GAbJ--54" edge="1">
          <mxGeometry as="geometry" width="100" height="100" relative="1">
            <mxPoint as="sourcePoint" x="50" y="-511" />
            <mxPoint as="targetPoint" x="30" y="59" />
            <Array as="points">
              <mxPoint x="10" y="-511" />
              <mxPoint x="10" y="233" />
            </Array>
          </mxGeometry>
        </mxCell>
        <mxCell id="4Npi-XYbnUJPOElRgU_o-16" value="PayPal" parent="WIyWlLk6GJQsqaUBKTNV-1" style="swimlane;fontStyle=1;childLayout=stackLayout;horizontal=1;startSize=26;horizontalStack=0;resizeParent=1;resizeParentMax=0;resizeLast=0;collapsible=1;marginBottom=0;align=center;fontSize=14;fillColor=#d5e8d4;strokeColor=#82b366;" vertex="1">
          <mxGeometry as="geometry" x="520" y="130" width="160" height="150" />
        </mxCell>
        <mxCell id="4Npi-XYbnUJPOElRgU_o-17" value="PayPalId" parent="4Npi-XYbnUJPOElRgU_o-16" style="shape=partialRectangle;top=0;left=0;right=0;bottom=1;align=left;verticalAlign=middle;fillColor=none;spacingLeft=34;spacingRight=4;overflow=hidden;rotatable=0;points=[[0,0.5],[1,0.5]];portConstraint=eastwest;dropTarget=0;fontStyle=5;fontSize=12;" vertex="1">
          <mxGeometry as="geometry" y="26" width="160" height="30" />
        </mxCell>
        <mxCell id="4Npi-XYbnUJPOElRgU_o-18" value="PK" parent="4Npi-XYbnUJPOElRgU_o-17" style="shape=partialRectangle;top=0;left=0;bottom=0;fillColor=none;align=left;verticalAlign=middle;spacingLeft=4;spacingRight=4;overflow=hidden;rotatable=0;points=[];portConstraint=eastwest;part=1;fontSize=12;" vertex="1" connectable="0">
          <mxGeometry as="geometry" width="30" height="30" />
        </mxCell>
        <mxCell id="4Npi-XYbnUJPOElRgU_o-19" value="RequestSevice&#xa;DonateService&#xa;" parent="4Npi-XYbnUJPOElRgU_o-16" style="shape=partialRectangle;top=0;left=0;right=0;bottom=0;align=left;verticalAlign=top;fillColor=none;spacingLeft=34;spacingRight=4;overflow=hidden;rotatable=0;points=[[0,0.5],[1,0.5]];portConstraint=eastwest;dropTarget=0;fontSize=12;" vertex="1">
          <mxGeometry as="geometry" y="56" width="160" height="94" />
        </mxCell>
        <mxCell id="4Npi-XYbnUJPOElRgU_o-20" value="FK&#xa;FK" parent="4Npi-XYbnUJPOElRgU_o-19" style="shape=partialRectangle;top=0;left=0;bottom=0;fillColor=none;align=left;verticalAlign=top;spacingLeft=4;spacingRight=4;overflow=hidden;rotatable=0;points=[];portConstraint=eastwest;part=1;fontSize=12;" vertex="1" connectable="0">
          <mxGeometry as="geometry" width="30" height="94" />
        </mxCell>
        <mxCell id="0W0cWMTUV2IDfXPeLBm6-0" value="" parent="WIyWlLk6GJQsqaUBKTNV-1" style="edgeStyle=orthogonalEdgeStyle;fontSize=12;html=1;endArrow=ERmandOne;startArrow=ERone;startFill=0;" source="zkfFHV4jXpPFQw0GAbJ--52" edge="1">
          <mxGeometry as="geometry" width="100" height="100" relative="1">
            <mxPoint as="sourcePoint" x="200" y="220" />
            <mxPoint as="targetPoint" x="270" y="80" />
            <Array as="points">
              <mxPoint x="230" y="220" />
              <mxPoint x="230" y="80" />
            </Array>
          </mxGeometry>
        </mxCell>
        <mxCell id="oAIq1dQu28Q5ENZZxSXI-0" value="" parent="WIyWlLk6GJQsqaUBKTNV-1" style="edgeStyle=orthogonalEdgeStyle;fontSize=12;html=1;endArrow=ERmany;startArrow=ERzeroToOne;startFill=1;endFill=0;" edge="1">
          <mxGeometry as="geometry" width="100" height="100" relative="1">
            <mxPoint as="sourcePoint" x="190" y="330" />
            <mxPoint as="targetPoint" x="270" y="50" />
            <Array as="points">
              <mxPoint x="190" y="330" />
              <mxPoint x="220" y="330" />
              <mxPoint x="220" y="50" />
            </Array>
          </mxGeometry>
        </mxCell>
        <mxCell id="KTBwwEuSzIFc9z8oNqsP-0" value="AspNetRoles" parent="WIyWlLk6GJQsqaUBKTNV-1" style="swimlane;fontStyle=1;childLayout=stackLayout;horizontal=1;startSize=26;horizontalStack=0;resizeParent=1;resizeLast=0;collapsible=1;marginBottom=0;rounded=0;shadow=0;strokeWidth=1;fontSize=14;fillColor=#dae8fc;strokeColor=#6c8ebf;" vertex="1">
          <mxGeometry as="geometry" x="60" y="-430" width="160" height="80">
            <mxRectangle as="alternateBounds" x="20" y="80" width="160" height="26" />
          </mxGeometry>
        </mxCell>
        <mxCell id="KTBwwEuSzIFc9z8oNqsP-1" value="Id" parent="KTBwwEuSzIFc9z8oNqsP-0" style="shape=partialRectangle;top=0;left=0;right=0;bottom=1;align=left;verticalAlign=top;fillColor=none;spacingLeft=40;spacingRight=4;overflow=hidden;rotatable=0;points=[[0,0.5],[1,0.5]];portConstraint=eastwest;dropTarget=0;rounded=0;shadow=0;strokeWidth=1;fontStyle=4" vertex="1">
          <mxGeometry as="geometry" y="26" width="160" height="26" />
        </mxCell>
        <mxCell id="KTBwwEuSzIFc9z8oNqsP-2" value="PK" parent="KTBwwEuSzIFc9z8oNqsP-1" style="shape=partialRectangle;top=0;left=0;bottom=0;fillColor=none;align=left;verticalAlign=top;spacingLeft=4;spacingRight=4;overflow=hidden;rotatable=0;points=[];portConstraint=eastwest;part=1;" vertex="1" connectable="0">
          <mxGeometry as="geometry" width="36" height="26" />
        </mxCell>
        <mxCell id="KTBwwEuSzIFc9z8oNqsP-3" value="Name" parent="KTBwwEuSzIFc9z8oNqsP-0" style="shape=partialRectangle;top=0;left=0;right=0;bottom=0;align=left;verticalAlign=top;fillColor=none;spacingLeft=40;spacingRight=4;overflow=hidden;rotatable=0;points=[[0,0.5],[1,0.5]];portConstraint=eastwest;dropTarget=0;rounded=0;shadow=0;strokeWidth=1;" vertex="1">
          <mxGeometry as="geometry" y="52" width="160" height="28" />
        </mxCell>
        <mxCell id="KTBwwEuSzIFc9z8oNqsP-4" value="" parent="KTBwwEuSzIFc9z8oNqsP-3" style="shape=partialRectangle;top=0;left=0;bottom=0;fillColor=none;align=left;verticalAlign=top;spacingLeft=4;spacingRight=4;overflow=hidden;rotatable=0;points=[];portConstraint=eastwest;part=1;" vertex="1" connectable="0">
          <mxGeometry as="geometry" width="36" height="28" />
        </mxCell>
        <mxCell id="KTBwwEuSzIFc9z8oNqsP-5" value="AspNetUserRoles" parent="WIyWlLk6GJQsqaUBKTNV-1" style="swimlane;fontStyle=1;childLayout=stackLayout;horizontal=1;startSize=26;horizontalStack=0;resizeParent=1;resizeLast=0;collapsible=1;marginBottom=0;rounded=0;shadow=0;strokeWidth=1;fontSize=14;fillColor=#dae8fc;strokeColor=#6c8ebf;" vertex="1">
          <mxGeometry as="geometry" x="50" y="-550" width="160" height="80">
            <mxRectangle as="alternateBounds" x="20" y="80" width="160" height="26" />
          </mxGeometry>
        </mxCell>
        <mxCell id="KTBwwEuSzIFc9z8oNqsP-6" value="UserId" parent="KTBwwEuSzIFc9z8oNqsP-5" style="shape=partialRectangle;top=0;left=0;right=0;bottom=1;align=left;verticalAlign=top;fillColor=none;spacingLeft=40;spacingRight=4;overflow=hidden;rotatable=0;points=[[0,0.5],[1,0.5]];portConstraint=eastwest;dropTarget=0;rounded=0;shadow=0;strokeWidth=1;fontStyle=4" vertex="1">
          <mxGeometry as="geometry" y="26" width="160" height="26" />
        </mxCell>
        <mxCell id="KTBwwEuSzIFc9z8oNqsP-7" value="PK" parent="KTBwwEuSzIFc9z8oNqsP-6" style="shape=partialRectangle;top=0;left=0;bottom=0;fillColor=none;align=left;verticalAlign=top;spacingLeft=4;spacingRight=4;overflow=hidden;rotatable=0;points=[];portConstraint=eastwest;part=1;" vertex="1" connectable="0">
          <mxGeometry as="geometry" width="36" height="26" />
        </mxCell>
        <mxCell id="KTBwwEuSzIFc9z8oNqsP-8" value="RoleId" parent="KTBwwEuSzIFc9z8oNqsP-5" style="shape=partialRectangle;top=0;left=0;right=0;bottom=0;align=left;verticalAlign=top;fillColor=none;spacingLeft=40;spacingRight=4;overflow=hidden;rotatable=0;points=[[0,0.5],[1,0.5]];portConstraint=eastwest;dropTarget=0;rounded=0;shadow=0;strokeWidth=1;" vertex="1">
          <mxGeometry as="geometry" y="52" width="160" height="28" />
        </mxCell>
        <mxCell id="KTBwwEuSzIFc9z8oNqsP-9" value="" parent="KTBwwEuSzIFc9z8oNqsP-8" style="shape=partialRectangle;top=0;left=0;bottom=0;fillColor=none;align=left;verticalAlign=top;spacingLeft=4;spacingRight=4;overflow=hidden;rotatable=0;points=[];portConstraint=eastwest;part=1;" vertex="1" connectable="0">
          <mxGeometry as="geometry" width="36" height="28" />
        </mxCell>
        <mxCell id="KTBwwEuSzIFc9z8oNqsP-10" value="AspNetUserLogins" parent="WIyWlLk6GJQsqaUBKTNV-1" style="swimlane;fontStyle=1;childLayout=stackLayout;horizontal=1;startSize=26;horizontalStack=0;resizeParent=1;resizeLast=0;collapsible=1;marginBottom=0;rounded=0;shadow=0;strokeWidth=1;fontSize=14;fillColor=#dae8fc;strokeColor=#6c8ebf;" vertex="1">
          <mxGeometry as="geometry" x="340" y="-790" width="160" height="110">
            <mxRectangle as="alternateBounds" x="20" y="80" width="160" height="26" />
          </mxGeometry>
        </mxCell>
        <mxCell id="KTBwwEuSzIFc9z8oNqsP-11" value="LoginProvider" parent="KTBwwEuSzIFc9z8oNqsP-10" style="shape=partialRectangle;top=0;left=0;right=0;bottom=1;align=left;verticalAlign=top;fillColor=none;spacingLeft=40;spacingRight=4;overflow=hidden;rotatable=0;points=[[0,0.5],[1,0.5]];portConstraint=eastwest;dropTarget=0;rounded=0;shadow=0;strokeWidth=1;fontStyle=4" vertex="1">
          <mxGeometry as="geometry" y="26" width="160" height="26" />
        </mxCell>
        <mxCell id="KTBwwEuSzIFc9z8oNqsP-12" value="PK" parent="KTBwwEuSzIFc9z8oNqsP-11" style="shape=partialRectangle;top=0;left=0;bottom=0;fillColor=none;align=left;verticalAlign=top;spacingLeft=4;spacingRight=4;overflow=hidden;rotatable=0;points=[];portConstraint=eastwest;part=1;" vertex="1" connectable="0">
          <mxGeometry as="geometry" width="36" height="26" />
        </mxCell>
        <mxCell id="KTBwwEuSzIFc9z8oNqsP-13" value="ProviderKey&#xa;&#xa;UserId" parent="KTBwwEuSzIFc9z8oNqsP-10" style="shape=partialRectangle;top=0;left=0;right=0;bottom=0;align=left;verticalAlign=top;fillColor=none;spacingLeft=40;spacingRight=4;overflow=hidden;rotatable=0;points=[[0,0.5],[1,0.5]];portConstraint=eastwest;dropTarget=0;rounded=0;shadow=0;strokeWidth=1;" vertex="1">
          <mxGeometry as="geometry" y="52" width="160" height="58" />
        </mxCell>
        <mxCell id="KTBwwEuSzIFc9z8oNqsP-14" value="FK&#xa;&#xa;FK" parent="KTBwwEuSzIFc9z8oNqsP-13" style="shape=partialRectangle;top=0;left=0;bottom=0;fillColor=none;align=left;verticalAlign=top;spacingLeft=4;spacingRight=4;overflow=hidden;rotatable=0;points=[];portConstraint=eastwest;part=1;" vertex="1" connectable="0">
          <mxGeometry as="geometry" width="36" height="58" />
        </mxCell>
        <mxCell id="KTBwwEuSzIFc9z8oNqsP-15" value="AspNetUsers" parent="WIyWlLk6GJQsqaUBKTNV-1" style="swimlane;fontStyle=1;childLayout=stackLayout;horizontal=1;startSize=26;horizontalStack=0;resizeParent=1;resizeLast=0;collapsible=1;marginBottom=0;rounded=0;shadow=0;strokeWidth=1;fontSize=14;fillColor=#dae8fc;strokeColor=#6c8ebf;" vertex="1">
          <mxGeometry as="geometry" x="333" y="-530" width="160" height="450">
            <mxRectangle as="alternateBounds" x="20" y="80" width="160" height="26" />
          </mxGeometry>
        </mxCell>
        <mxCell id="KTBwwEuSzIFc9z8oNqsP-31" parent="KTBwwEuSzIFc9z8oNqsP-15" style="edgeStyle=orthogonalEdgeStyle;rounded=0;orthogonalLoop=1;jettySize=auto;html=1;startArrow=oval;startFill=0;endArrow=ERzeroToOne;endFill=1;exitX=-0.019;exitY=0.148;exitDx=0;exitDy=0;exitPerimeter=0;" source="KTBwwEuSzIFc9z8oNqsP-23" edge="1">
          <mxGeometry as="geometry" relative="1">
            <mxPoint as="targetPoint" x="157" y="30" />
            <mxPoint as="sourcePoint" x="247" y="270" />
            <Array as="points">
              <mxPoint x="264" y="30" />
            </Array>
          </mxGeometry>
        </mxCell>
        <mxCell id="KTBwwEuSzIFc9z8oNqsP-16" value="Id" parent="KTBwwEuSzIFc9z8oNqsP-15" style="shape=partialRectangle;top=0;left=0;right=0;bottom=1;align=left;verticalAlign=top;fillColor=none;spacingLeft=40;spacingRight=4;overflow=hidden;rotatable=0;points=[[0,0.5],[1,0.5]];portConstraint=eastwest;dropTarget=0;rounded=0;shadow=0;strokeWidth=1;fontStyle=4" vertex="1">
          <mxGeometry as="geometry" y="26" width="160" height="26" />
        </mxCell>
        <mxCell id="KTBwwEuSzIFc9z8oNqsP-17" value="PK" parent="KTBwwEuSzIFc9z8oNqsP-16" style="shape=partialRectangle;top=0;left=0;bottom=0;fillColor=none;align=left;verticalAlign=top;spacingLeft=4;spacingRight=4;overflow=hidden;rotatable=0;points=[];portConstraint=eastwest;part=1;" vertex="1" connectable="0">
          <mxGeometry as="geometry" width="36" height="26" />
        </mxCell>
        <mxCell id="KTBwwEuSzIFc9z8oNqsP-18" value="UserName&#xa;&#xa;NormalizedUserName&#xa;&#xa;Email&#xa;&#xa;NormalizedEmail&#xa;&#xa;EmailConfirmed&#xa;&#xa;PasswordHash&#xa;&#xa;SecurityStamp&#xa;&#xa;ConcurrencyStamp&#xa;&#xa;PhoneNumber&#xa;&#xa;PhoneNumberConfirmed&#xa;&#xa;TwoFactorEnabled&#xa;&#xa;LockoutEnd&#xa;&#xa;LockoutEnabled&#xa;&#xa;AccessFailedCount" parent="KTBwwEuSzIFc9z8oNqsP-15" style="shape=partialRectangle;top=0;left=0;right=0;bottom=0;align=left;verticalAlign=top;fillColor=none;spacingLeft=40;spacingRight=4;overflow=hidden;rotatable=0;points=[[0,0.5],[1,0.5]];portConstraint=eastwest;dropTarget=0;rounded=0;shadow=0;strokeWidth=1;" vertex="1">
          <mxGeometry as="geometry" y="52" width="160" height="398" />
        </mxCell>
        <mxCell id="KTBwwEuSzIFc9z8oNqsP-19" value="" parent="KTBwwEuSzIFc9z8oNqsP-18" style="shape=partialRectangle;top=0;left=0;bottom=0;fillColor=none;align=left;verticalAlign=top;spacingLeft=4;spacingRight=4;overflow=hidden;rotatable=0;points=[];portConstraint=eastwest;part=1;" vertex="1" connectable="0">
          <mxGeometry as="geometry" width="36" height="398" />
        </mxCell>
        <mxCell id="KTBwwEuSzIFc9z8oNqsP-20" value="AspNetUserClaims" parent="WIyWlLk6GJQsqaUBKTNV-1" style="swimlane;fontStyle=1;childLayout=stackLayout;horizontal=1;startSize=26;horizontalStack=0;resizeParent=1;resizeLast=0;collapsible=1;marginBottom=0;rounded=0;shadow=0;strokeWidth=1;fontSize=14;fillColor=#dae8fc;strokeColor=#6c8ebf;" vertex="1">
          <mxGeometry as="geometry" x="600" y="-320" width="160" height="140">
            <mxRectangle as="alternateBounds" x="20" y="80" width="160" height="26" />
          </mxGeometry>
        </mxCell>
        <mxCell id="KTBwwEuSzIFc9z8oNqsP-21" value="Id" parent="KTBwwEuSzIFc9z8oNqsP-20" style="shape=partialRectangle;top=0;left=0;right=0;bottom=1;align=left;verticalAlign=top;fillColor=none;spacingLeft=40;spacingRight=4;overflow=hidden;rotatable=0;points=[[0,0.5],[1,0.5]];portConstraint=eastwest;dropTarget=0;rounded=0;shadow=0;strokeWidth=1;fontStyle=4" vertex="1">
          <mxGeometry as="geometry" y="26" width="160" height="26" />
        </mxCell>
        <mxCell id="KTBwwEuSzIFc9z8oNqsP-22" value="PK" parent="KTBwwEuSzIFc9z8oNqsP-21" style="shape=partialRectangle;top=0;left=0;bottom=0;fillColor=none;align=left;verticalAlign=top;spacingLeft=4;spacingRight=4;overflow=hidden;rotatable=0;points=[];portConstraint=eastwest;part=1;" vertex="1" connectable="0">
          <mxGeometry as="geometry" width="36" height="26" />
        </mxCell>
        <mxCell id="KTBwwEuSzIFc9z8oNqsP-23" value="UserId&#xa;&#xa;ClaimType&#xa;&#xa;ClaimValue" parent="KTBwwEuSzIFc9z8oNqsP-20" style="shape=partialRectangle;top=0;left=0;right=0;bottom=0;align=left;verticalAlign=top;fillColor=none;spacingLeft=40;spacingRight=4;overflow=hidden;rotatable=0;points=[[0,0.5],[1,0.5]];portConstraint=eastwest;dropTarget=0;rounded=0;shadow=0;strokeWidth=1;" vertex="1">
          <mxGeometry as="geometry" y="52" width="160" height="88" />
        </mxCell>
        <mxCell id="KTBwwEuSzIFc9z8oNqsP-24" value="FK&#xa;&#xa;&#xa;&#xa;" parent="KTBwwEuSzIFc9z8oNqsP-23" style="shape=partialRectangle;top=0;left=0;bottom=0;fillColor=none;align=left;verticalAlign=top;spacingLeft=4;spacingRight=4;overflow=hidden;rotatable=0;points=[];portConstraint=eastwest;part=1;" vertex="1" connectable="0">
          <mxGeometry as="geometry" width="36" height="88" />
        </mxCell>
        <mxCell id="KTBwwEuSzIFc9z8oNqsP-25" value="" parent="WIyWlLk6GJQsqaUBKTNV-1" style="edgeStyle=orthogonalEdgeStyle;fontSize=12;html=1;endArrow=ERone;endFill=0;entryX=0;entryY=0.5;entryDx=0;entryDy=0;startArrow=ERone;startFill=0;" target="KTBwwEuSzIFc9z8oNqsP-8" edge="1">
          <mxGeometry as="geometry" width="100" height="100" relative="1">
            <mxPoint as="sourcePoint" x="60" y="-390" />
            <mxPoint as="targetPoint" x="36.960000000000036" y="243.2800000000002" />
            <Array as="points">
              <mxPoint x="20" y="-390" />
              <mxPoint x="20" y="-484" />
            </Array>
          </mxGeometry>
        </mxCell>
        <mxCell id="KTBwwEuSzIFc9z8oNqsP-26" value="" parent="WIyWlLk6GJQsqaUBKTNV-1" style="edgeStyle=orthogonalEdgeStyle;fontSize=12;html=1;endArrow=ERzeroToOne;startArrow=ERzeroToOne;startFill=1;endFill=1;" edge="1">
          <mxGeometry as="geometry" width="100" height="100" relative="1">
            <mxPoint as="sourcePoint" x="213" y="-510" />
            <mxPoint as="targetPoint" x="330" y="-489" />
            <Array as="points">
              <mxPoint x="270" y="-510" />
              <mxPoint x="270" y="-489" />
            </Array>
          </mxGeometry>
        </mxCell>
        <mxCell id="KTBwwEuSzIFc9z8oNqsP-30" parent="WIyWlLk6GJQsqaUBKTNV-1" style="edgeStyle=orthogonalEdgeStyle;rounded=0;orthogonalLoop=1;jettySize=auto;html=1;startArrow=oval;startFill=0;endArrow=ERzeroToOne;endFill=1;exitX=0.988;exitY=0.793;exitDx=0;exitDy=0;exitPerimeter=0;" source="KTBwwEuSzIFc9z8oNqsP-13" edge="1">
          <mxGeometry as="geometry" relative="1">
            <mxPoint as="targetPoint" x="492.5" y="-486" />
            <mxPoint as="sourcePoint" x="787.5" y="-820" />
            <Array as="points">
              <mxPoint x="523" y="-693" />
              <mxPoint x="523" y="-486" />
            </Array>
          </mxGeometry>
        </mxCell>
        <mxCell id="KTBwwEuSzIFc9z8oNqsP-32" value="Admin" parent="WIyWlLk6GJQsqaUBKTNV-1" style="swimlane;fontStyle=1;childLayout=stackLayout;horizontal=1;startSize=26;horizontalStack=0;resizeParent=1;resizeLast=0;collapsible=1;marginBottom=0;rounded=0;shadow=0;strokeWidth=1;fontSize=14;fillColor=#dae8fc;strokeColor=#6c8ebf;" vertex="1">
          <mxGeometry as="geometry" x="60" y="-230" width="160" height="130">
            <mxRectangle as="alternateBounds" x="20" y="80" width="160" height="26" />
          </mxGeometry>
        </mxCell>
        <mxCell id="KTBwwEuSzIFc9z8oNqsP-33" value="AdminId" parent="KTBwwEuSzIFc9z8oNqsP-32" style="shape=partialRectangle;top=0;left=0;right=0;bottom=1;align=left;verticalAlign=top;fillColor=none;spacingLeft=40;spacingRight=4;overflow=hidden;rotatable=0;points=[[0,0.5],[1,0.5]];portConstraint=eastwest;dropTarget=0;rounded=0;shadow=0;strokeWidth=1;fontStyle=4" vertex="1">
          <mxGeometry as="geometry" y="26" width="160" height="26" />
        </mxCell>
        <mxCell id="KTBwwEuSzIFc9z8oNqsP-34" value="PK" parent="KTBwwEuSzIFc9z8oNqsP-33" style="shape=partialRectangle;top=0;left=0;bottom=0;fillColor=none;align=left;verticalAlign=top;spacingLeft=4;spacingRight=4;overflow=hidden;rotatable=0;points=[];portConstraint=eastwest;part=1;" vertex="1" connectable="0">
          <mxGeometry as="geometry" width="36" height="26" />
        </mxCell>
        <mxCell id="KTBwwEuSzIFc9z8oNqsP-35" value="IdentiyUserId&#xa;&#xa;FirstName&#xa;&#xa;LastName" parent="KTBwwEuSzIFc9z8oNqsP-32" style="shape=partialRectangle;top=0;left=0;right=0;bottom=0;align=left;verticalAlign=top;fillColor=none;spacingLeft=40;spacingRight=4;overflow=hidden;rotatable=0;points=[[0,0.5],[1,0.5]];portConstraint=eastwest;dropTarget=0;rounded=0;shadow=0;strokeWidth=1;" vertex="1">
          <mxGeometry as="geometry" y="52" width="160" height="78" />
        </mxCell>
        <mxCell id="KTBwwEuSzIFc9z8oNqsP-36" value="FK&#xa;" parent="KTBwwEuSzIFc9z8oNqsP-35" style="shape=partialRectangle;top=0;left=0;bottom=0;fillColor=none;align=left;verticalAlign=top;spacingLeft=4;spacingRight=4;overflow=hidden;rotatable=0;points=[];portConstraint=eastwest;part=1;" vertex="1" connectable="0">
          <mxGeometry as="geometry" width="36" height="78" />
        </mxCell>
        <mxCell id="KTBwwEuSzIFc9z8oNqsP-37" value="" parent="WIyWlLk6GJQsqaUBKTNV-1" style="edgeStyle=orthogonalEdgeStyle;fontSize=12;html=1;endArrow=ERzeroToOne;endFill=1;startArrow=ERone;startFill=0;entryX=0.006;entryY=0.154;entryDx=0;entryDy=0;entryPerimeter=0;" target="KTBwwEuSzIFc9z8oNqsP-35" edge="1">
          <mxGeometry as="geometry" width="100" height="100" relative="1">
            <mxPoint as="sourcePoint" x="60" y="-501" />
            <mxPoint as="targetPoint" x="50" y="-130" />
            <Array as="points">
              <mxPoint y="-501" />
              <mxPoint y="-166" />
            </Array>
          </mxGeometry>
        </mxCell>
        <mxCell id="oAIq1dQu28Q5ENZZxSXI-18" value="Radius" parent="WIyWlLk6GJQsqaUBKTNV-1" style="swimlane;fontStyle=1;childLayout=stackLayout;horizontal=1;startSize=26;horizontalStack=0;resizeParent=1;resizeParentMax=0;resizeLast=0;collapsible=1;marginBottom=0;align=center;fontSize=14;fillColor=#f8cecc;strokeColor=#b85450;" vertex="1">
          <mxGeometry as="geometry" x="270" y="455" width="160" height="130" />
        </mxCell>
        <mxCell id="oAIq1dQu28Q5ENZZxSXI-19" value="RadiusId" parent="oAIq1dQu28Q5ENZZxSXI-18" style="shape=partialRectangle;top=0;left=0;right=0;bottom=1;align=left;verticalAlign=middle;fillColor=none;spacingLeft=34;spacingRight=4;overflow=hidden;rotatable=0;points=[[0,0.5],[1,0.5]];portConstraint=eastwest;dropTarget=0;fontStyle=5;fontSize=12;" vertex="1">
          <mxGeometry as="geometry" y="26" width="160" height="30" />
        </mxCell>
        <mxCell id="oAIq1dQu28Q5ENZZxSXI-20" value="PK" parent="oAIq1dQu28Q5ENZZxSXI-19" style="shape=partialRectangle;top=0;left=0;bottom=0;fillColor=none;align=left;verticalAlign=middle;spacingLeft=4;spacingRight=4;overflow=hidden;rotatable=0;points=[];portConstraint=eastwest;part=1;fontSize=12;" vertex="1" connectable="0">
          <mxGeometry as="geometry" width="30" height="30" />
        </mxCell>
        <mxCell id="oAIq1dQu28Q5ENZZxSXI-21" value="RadiusMiles&#xa;" parent="oAIq1dQu28Q5ENZZxSXI-18" style="shape=partialRectangle;top=0;left=0;right=0;bottom=0;align=left;verticalAlign=top;fillColor=none;spacingLeft=34;spacingRight=4;overflow=hidden;rotatable=0;points=[[0,0.5],[1,0.5]];portConstraint=eastwest;dropTarget=0;fontSize=12;" vertex="1">
          <mxGeometry as="geometry" y="56" width="160" height="74" />
        </mxCell>
        <mxCell id="oAIq1dQu28Q5ENZZxSXI-22" value="" parent="oAIq1dQu28Q5ENZZxSXI-21" style="shape=partialRectangle;top=0;left=0;bottom=0;fillColor=none;align=left;verticalAlign=top;spacingLeft=4;spacingRight=4;overflow=hidden;rotatable=0;points=[];portConstraint=eastwest;part=1;fontSize=12;" vertex="1" connectable="0">
          <mxGeometry as="geometry" width="30" height="74" />
        </mxCell>
        <mxCell id="w6MAxaTwaF9I9nZjJXPJ-64" value="GoogleLocaton" parent="WIyWlLk6GJQsqaUBKTNV-1" style="swimlane;fontStyle=1;childLayout=stackLayout;horizontal=1;startSize=26;horizontalStack=0;resizeParent=1;resizeParentMax=0;resizeLast=0;collapsible=1;marginBottom=0;align=center;fontSize=14;fillColor=#f8cecc;strokeColor=#b85450;" vertex="1">
          <mxGeometry as="geometry" x="20" y="630" width="170" height="120" />
        </mxCell>
        <mxCell id="w6MAxaTwaF9I9nZjJXPJ-65" value="GoogleLocationId" parent="w6MAxaTwaF9I9nZjJXPJ-64" style="shape=partialRectangle;top=0;left=0;right=0;bottom=1;align=left;verticalAlign=middle;fillColor=none;spacingLeft=34;spacingRight=4;overflow=hidden;rotatable=0;points=[[0,0.5],[1,0.5]];portConstraint=eastwest;dropTarget=0;fontStyle=5;fontSize=12;" vertex="1">
          <mxGeometry as="geometry" y="26" width="170" height="30" />
        </mxCell>
        <mxCell id="w6MAxaTwaF9I9nZjJXPJ-66" value="PK" parent="w6MAxaTwaF9I9nZjJXPJ-65" style="shape=partialRectangle;top=0;left=0;bottom=0;fillColor=none;align=left;verticalAlign=middle;spacingLeft=4;spacingRight=4;overflow=hidden;rotatable=0;points=[];portConstraint=eastwest;part=1;fontSize=12;" vertex="1" connectable="0">
          <mxGeometry as="geometry" width="30" height="30" />
        </mxCell>
        <mxCell id="w6MAxaTwaF9I9nZjJXPJ-35" value="" parent="w6MAxaTwaF9I9nZjJXPJ-64" style="shape=partialRectangle;top=0;left=0;right=0;bottom=0;align=left;verticalAlign=top;fillColor=none;spacingLeft=34;spacingRight=4;overflow=hidden;rotatable=0;points=[[0,0.5],[1,0.5]];portConstraint=eastwest;dropTarget=0;fontSize=12;" vertex="1">
          <mxGeometry as="geometry" y="56" width="170" />
        </mxCell>
        <mxCell id="w6MAxaTwaF9I9nZjJXPJ-36" value="" parent="w6MAxaTwaF9I9nZjJXPJ-35" style="shape=partialRectangle;top=0;left=0;bottom=0;fillColor=none;align=left;verticalAlign=top;spacingLeft=4;spacingRight=4;overflow=hidden;rotatable=0;points=[];portConstraint=eastwest;part=1;fontSize=12;" vertex="1" connectable="0">
          <mxGeometry as="geometry" width="30" />
        </mxCell>
        <mxCell id="w6MAxaTwaF9I9nZjJXPJ-67" value="&#xa;GoogleLocationDisplay" parent="w6MAxaTwaF9I9nZjJXPJ-64" style="shape=partialRectangle;top=0;left=0;right=0;bottom=0;align=left;verticalAlign=top;fillColor=none;spacingLeft=34;spacingRight=4;overflow=hidden;rotatable=0;points=[[0,0.5],[1,0.5]];portConstraint=eastwest;dropTarget=0;fontSize=12;" vertex="1">
          <mxGeometry as="geometry" y="56" width="170" height="64" />
        </mxCell>
        <mxCell id="w6MAxaTwaF9I9nZjJXPJ-68" value="" parent="w6MAxaTwaF9I9nZjJXPJ-67" style="shape=partialRectangle;top=0;left=0;bottom=0;fillColor=none;align=left;verticalAlign=top;spacingLeft=4;spacingRight=4;overflow=hidden;rotatable=0;points=[];portConstraint=eastwest;part=1;fontSize=12;" vertex="1" connectable="0">
          <mxGeometry as="geometry" width="31.875" height="64" />
        </mxCell>
        <mxCell id="w6MAxaTwaF9I9nZjJXPJ-52" value="RatingHelpfulness" parent="WIyWlLk6GJQsqaUBKTNV-1" style="swimlane;fontStyle=1;childLayout=stackLayout;horizontal=1;startSize=26;horizontalStack=0;resizeParent=1;resizeParentMax=0;resizeLast=0;collapsible=1;marginBottom=0;align=center;fontSize=14;fillColor=#f8cecc;strokeColor=#b85450;" vertex="1">
          <mxGeometry as="geometry" x="30" y="500" width="160" height="120" />
        </mxCell>
        <mxCell id="w6MAxaTwaF9I9nZjJXPJ-53" value="RatingHelpfulnessId" parent="w6MAxaTwaF9I9nZjJXPJ-52" style="shape=partialRectangle;top=0;left=0;right=0;bottom=1;align=left;verticalAlign=middle;fillColor=none;spacingLeft=34;spacingRight=4;overflow=hidden;rotatable=0;points=[[0,0.5],[1,0.5]];portConstraint=eastwest;dropTarget=0;fontStyle=5;fontSize=12;" vertex="1">
          <mxGeometry as="geometry" y="26" width="160" height="30" />
        </mxCell>
        <mxCell id="w6MAxaTwaF9I9nZjJXPJ-54" value="PK" parent="w6MAxaTwaF9I9nZjJXPJ-53" style="shape=partialRectangle;top=0;left=0;bottom=0;fillColor=none;align=left;verticalAlign=middle;spacingLeft=4;spacingRight=4;overflow=hidden;rotatable=0;points=[];portConstraint=eastwest;part=1;fontSize=12;" vertex="1" connectable="0">
          <mxGeometry as="geometry" width="30" height="30" />
        </mxCell>
        <mxCell id="w6MAxaTwaF9I9nZjJXPJ-61" value="RatingAverge&#xa;&#xa;RatingEntry" parent="w6MAxaTwaF9I9nZjJXPJ-52" style="shape=partialRectangle;top=0;left=0;right=0;bottom=0;align=left;verticalAlign=top;fillColor=none;spacingLeft=34;spacingRight=4;overflow=hidden;rotatable=0;points=[[0,0.5],[1,0.5]];portConstraint=eastwest;dropTarget=0;fontSize=12;" vertex="1">
          <mxGeometry as="geometry" y="56" width="160" height="64" />
        </mxCell>
        <mxCell id="w6MAxaTwaF9I9nZjJXPJ-62" value="" parent="w6MAxaTwaF9I9nZjJXPJ-61" style="shape=partialRectangle;top=0;left=0;bottom=0;fillColor=none;align=left;verticalAlign=top;spacingLeft=4;spacingRight=4;overflow=hidden;rotatable=0;points=[];portConstraint=eastwest;part=1;fontSize=12;" vertex="1" connectable="0">
          <mxGeometry as="geometry" width="30" height="64" />
        </mxCell>
        <mxCell id="DomBNrgT5yEvuVGPUxTt-2" value="" parent="WIyWlLk6GJQsqaUBKTNV-1" style="edgeStyle=entityRelationEdgeStyle;fontSize=12;html=1;endArrow=ERzeroToMany;endFill=1;entryX=0.006;entryY=0.336;entryDx=0;entryDy=0;entryPerimeter=0;" target="w6MAxaTwaF9I9nZjJXPJ-29" edge="1">
          <mxGeometry as="geometry" width="100" height="100" relative="1">
            <mxPoint as="sourcePoint" x="190" y="550" />
            <mxPoint as="targetPoint" x="268" y="101" />
          </mxGeometry>
        </mxCell>
        <mxCell id="DomBNrgT5yEvuVGPUxTt-6" value="" parent="WIyWlLk6GJQsqaUBKTNV-1" style="edgeStyle=entityRelationEdgeStyle;fontSize=12;html=1;endArrow=ERmandOne;startArrow=ERmandOne;exitX=0.998;exitY=0.278;exitDx=0;exitDy=0;exitPerimeter=0;" source="oAIq1dQu28Q5ENZZxSXI-19" target="w6MAxaTwaF9I9nZjJXPJ-17" edge="1">
          <mxGeometry as="geometry" width="100" height="100" relative="1">
            <mxPoint as="sourcePoint" x="420" y="420" />
            <mxPoint as="targetPoint" x="520" y="320" />
          </mxGeometry>
        </mxCell>
        <mxCell id="DomBNrgT5yEvuVGPUxTt-10" value="" parent="WIyWlLk6GJQsqaUBKTNV-1" style="edgeStyle=entityRelationEdgeStyle;fontSize=12;html=1;endArrow=ERoneToMany;entryX=0;entryY=0.068;entryDx=0;entryDy=0;entryPerimeter=0;" target="w6MAxaTwaF9I9nZjJXPJ-17" edge="1">
          <mxGeometry as="geometry" width="100" height="100" relative="1">
            <mxPoint as="sourcePoint" x="190" y="380" />
            <mxPoint as="targetPoint" x="270" y="280" />
          </mxGeometry>
        </mxCell>
      </root>
    </mxGraphModel>
  </diagram>
</mxfile>
